<svg xmlns="http://www.w3.org/2000/svg" width="18.425" height="18.413" viewBox="0 0 18.425 18.413">
  <g id="noun_Phone_4397837" transform="translate(0.1 0.1)">
    <path id="Path_464" data-name="Path 464" d="M18.839,23.213a8.753,8.753,0,0,1-1.193-.124,8.915,8.915,0,0,1-2.01-.617,16.637,16.637,0,0,1-2.65-1.452A19.831,19.831,0,0,1,9.843,18.37a20.793,20.793,0,0,1-2.19-2.494,17.919,17.919,0,0,1-1.4-2.21,12.062,12.062,0,0,1-.8-1.856,9.875,9.875,0,0,1-.365-1.445A4.832,4.832,0,0,1,5,9.378c.011-.208.018-.327.019-.357a.426.426,0,0,1,0-.043,2.149,2.149,0,0,1,.2-.623,1.709,1.709,0,0,1,.39-.536L8.076,5.354A1.13,1.13,0,0,1,8.9,5a1.006,1.006,0,0,1,.619.2,1.6,1.6,0,0,1,.393.427l.013.022,1.993,3.78a1.213,1.213,0,0,1,.123.865,1.475,1.475,0,0,1-.4.755l-.9.9,0,.014c0,.011-.006.019-.008.026a3.207,3.207,0,0,0,.3.761,7.933,7.933,0,0,0,.665,1.049,11.8,11.8,0,0,0,1.287,1.439,12.008,12.008,0,0,0,1.455,1.3,8.324,8.324,0,0,0,1.047.673,2.543,2.543,0,0,0,.588.241l.173.035.018-.006.013,0,1.043-1.062.016-.015a1.458,1.458,0,0,1,.993-.377,1.32,1.32,0,0,1,.613.127.3.3,0,0,1,.069.028L22.6,18.3a1.248,1.248,0,0,1,.615.825c0,.007,0,.014,0,.021a1.173,1.173,0,0,1-.351,1.01l-2.478,2.459a1.7,1.7,0,0,1-.523.377,2.128,2.128,0,0,1-.624.2.339.339,0,0,1-.045,0l-.08.008A2.615,2.615,0,0,1,18.839,23.213ZM5.654,9.052q0,.082-.019.361a4.3,4.3,0,0,0,.071.854,9.293,9.293,0,0,0,.342,1.35,11.4,11.4,0,0,0,.761,1.756A17.354,17.354,0,0,0,8.164,15.5a20.19,20.19,0,0,0,2.127,2.419,19.2,19.2,0,0,0,3.042,2.568,16.033,16.033,0,0,0,2.546,1.4,8.466,8.466,0,0,0,1.863.576,8.345,8.345,0,0,0,1.1.117c.088,0,.159,0,.213-.008l.105-.009a1.492,1.492,0,0,0,.427-.138,1.1,1.1,0,0,0,.341-.243l2.489-2.471a.536.536,0,0,0,.171-.468.634.634,0,0,0-.32-.4l-3.544-2.093a.278.278,0,0,1-.065-.028.663.663,0,0,0-.34-.066.83.83,0,0,0-.565.211L16.7,17.942a.612.612,0,0,1-.245.143.534.534,0,0,1-.285.038l-.233-.047a3.132,3.132,0,0,1-.752-.3,8.811,8.811,0,0,1-1.132-.725,12.617,12.617,0,0,1-1.53-1.367,12.4,12.4,0,0,1-1.352-1.516,8.537,8.537,0,0,1-.716-1.133,3.687,3.687,0,0,1-.363-.976.3.3,0,0,1-.005-.06.752.752,0,0,1,.045-.241.613.613,0,0,1,.141-.244l.913-.913a.844.844,0,0,0,.231-.437.587.587,0,0,0-.059-.431L9.366,5.962a.964.964,0,0,0-.232-.25A.376.376,0,0,0,8.9,5.635a.507.507,0,0,0-.372.168L6.046,8.279a1.1,1.1,0,0,0-.255.351A1.5,1.5,0,0,0,5.654,9.052Z" transform="translate(-5 -5)" fill="#0f0f0f" stroke="#0f0f0f" stroke-width="0.2"/>
  </g>
</svg>
