<svg version="1.0" xmlns="http://www.w3.org/2000/svg"
 width="14.375px" height="13.625px" viewBox="0 0 231.000000 218.000000"
 preserveAspectRatio="xMidYMid meet">

<g transform="translate(0.000000,218.000000) scale(0.100000,-0.100000)"
fill="#fff" stroke="none">
<path d="M2170 2090 c-272 -148 -555 -414 -1265 -1190 -163 -179 -300 -326
-304 -328 -4 -1 -41 105 -83 235 l-76 238 -89 3 c-151 5 -245 -22 -312 -92
l-35 -36 18 -37 c10 -20 83 -156 162 -301 154 -281 251 -444 315 -529 37 -49
43 -53 82 -53 41 0 44 2 111 88 38 48 138 191 223 319 353 534 599 848 1135
1456 284 322 263 297 252 296 -5 -1 -65 -32 -134 -69z"/>
</g>
</svg>
