<svg id="noun_Email_2817883" xmlns="http://www.w3.org/2000/svg" width="16.826" height="12.002" viewBox="0 0 16.826 12.002">
  <g id="Group_1240" data-name="Group 1240" transform="translate(0 0)">
    <path id="Path_465" data-name="Path 465" d="M.38,0H16.447a.381.381,0,0,1,.38.38V11.623a.359.359,0,0,1-.38.38H.38a.359.359,0,0,1-.38-.38V.38A.381.381,0,0,1,.38,0ZM15.611,11.243l-4.6-5.28-1.443.988a1.938,1.938,0,0,1-2.279,0L5.811,5.963l-4.6,5.28ZM.76,10.635,5.2,5.508.76,2.393Zm0-9.154L7.711,6.343a1.2,1.2,0,0,0,1.405,0l6.951-4.862V.76H.76Zm15.307.912L11.623,5.508l4.444,5.128Z" fill="#0f0f0f"/>
  </g>
</svg>
