<svg xmlns="http://www.w3.org/2000/svg" width="17.557" height="11.91" viewBox="0 0 17.557 11.91">
  <path id="Union_9" data-name="Union 9" d="M-4199.483-371.733h-10.9a.614.614,0,0,1-.613-.616.615.615,0,0,1,.613-.616h10.9a2.251,2.251,0,0,1,2.16-1.642,2.25,2.25,0,0,1,2.161,1.642h1.105a.615.615,0,0,1,.613.616.614.614,0,0,1-.613.616h-1.105a2.252,2.252,0,0,1-2.161,1.643A2.249,2.249,0,0,1-4199.483-371.733Zm-9.8-7.392h-1.105a.615.615,0,0,1-.613-.616.615.615,0,0,1,.613-.616h1.105a2.251,2.251,0,0,1,2.161-1.642,2.25,2.25,0,0,1,2.16,1.642h10.9a.615.615,0,0,1,.613.616.615.615,0,0,1-.613.616h-10.9a2.251,2.251,0,0,1-2.16,1.643A2.25,2.25,0,0,1-4209.282-379.125Z" transform="translate(4211 382)"/>
</svg>
