<svg id="noun_Location_1822288" xmlns="http://www.w3.org/2000/svg" width="14.97" height="22.705" viewBox="0 0 14.97 22.705">
  <g id="Group_1241" data-name="Group 1241" transform="translate(0 0)">
    <path id="Path_466" data-name="Path 466" d="M28.485,958.378A7.493,7.493,0,0,0,21,965.863a12.046,12.046,0,0,0,1.613,4.888l5.42,10.066a.516.516,0,0,0,.9,0l5.42-10.066a12.046,12.046,0,0,0,1.613-4.888A7.493,7.493,0,0,0,28.485,958.378Zm0,1.032a6.445,6.445,0,0,1,6.453,6.453,12.529,12.529,0,0,1-1.484,4.4l-4.968,9.227-4.968-9.227a12.529,12.529,0,0,1-1.484-4.4A6.445,6.445,0,0,1,28.485,959.41Zm0,2.581a3.872,3.872,0,1,0,3.872,3.872A3.879,3.879,0,0,0,28.485,961.991Zm0,1.032a2.839,2.839,0,1,1-2.839,2.839A2.831,2.831,0,0,1,28.485,963.024Z" transform="translate(-21 -958.378)" fill="#0f0f0f"/>
  </g>
</svg>
