<svg xmlns="http://www.w3.org/2000/svg" width="134.726" height="99.765" viewBox="0 0 134.726 99.765">
  <g id="Group_1689" data-name="Group 1689" transform="translate(-336.403 -300.827)">
    <path id="Path_12176" data-name="Path 12176" d="M463.954,399.267q.765-.07.766-.932V383.482a4.93,4.93,0,0,1,.139-1.49,1.173,1.173,0,0,1,1.184-.628,9.943,9.943,0,0,1,3.158.282,5.249,5.249,0,0,1,1.928,1.761V381.45q-.07-.714-1.045-.713-12.26-.047-13.886,0c-.388.031-.581.194-.581.487v2.3a16.156,16.156,0,0,1,1.268-1.277,3.244,3.244,0,0,1,1.96-.813,16.932,16.932,0,0,1,2.029-.07q1.2-.023,1.2,1.718v16.185Zm-12.446-16.789a4.652,4.652,0,0,0-2.16-1.068,6.192,6.192,0,0,0-1.417-.163,5.037,5.037,0,0,0-3.762,1.394,3.319,3.319,0,0,0-1.044,2.368,2.573,2.573,0,0,0,.371,1.486,9.021,9.021,0,0,0,2.973,2.322,26.6,26.6,0,0,1,3.437,2.16,5.567,5.567,0,0,1,1.764,2.089,3.851,3.851,0,0,1,.232,1.347,3.11,3.11,0,0,1-.325,1.486,6.736,6.736,0,0,1-3.135,2.694,9.762,9.762,0,0,1-4.156.883,13.386,13.386,0,0,1-2.531-.256q-1.463-.278-1.463-1.23v-2.183q1.672,3.019,4.156,3.019a4.149,4.149,0,0,0,1.834-.395q2.857-1.44,2.856-3.367a2.68,2.68,0,0,0-.627-1.788,8.036,8.036,0,0,0-2.392-1.718,21.934,21.934,0,0,1-3.668-2.159,5.424,5.424,0,0,1-1.533-1.741,4.619,4.619,0,0,1-.395-2.16,4.367,4.367,0,0,1,1.834-3.46,6.954,6.954,0,0,1,3.622-1.347,17.018,17.018,0,0,1,2.392-.139h1.068q1.417.093,1.463.116a2.5,2.5,0,0,1,1.3.511,5.122,5.122,0,0,1,.349,2.67,3.088,3.088,0,0,0-1.045-1.37m-18.762,10.89a.624.624,0,0,0-.093-.3l-3.414-8.986q-.232-.51-.464-.511c-.139,0-.255.171-.349.511l-2.368,9.614h6.2q.488-.023.488-.326m5.55,5.9H435.6q-.883.185-1.509-1.881-.511-1.416-.766-2a2.783,2.783,0,0,0-.441-.766,1.243,1.243,0,0,0-.813-.232h-6.223l-1.253,4.2a2.257,2.257,0,0,1-.349.441.841.841,0,0,1-.581.232h-1l6.269-18.46q.07-.232.464-.326a1.13,1.13,0,0,1,.349-.046h1Zm-25.891,0q.767-.07.627-1.068v-6.665q.07-.976.86-.975H419q.3-.045.3-.4,0-.179-.464-.224h-5.805v-7.364q.093-1.25,1.184-1.227,3.575.162,4.76.255a4.855,4.855,0,0,1,3.622,2.462v-1.672a1.57,1.57,0,0,0-1.788-1.6q-6.942.024-8.986,0-1.417.07-1.417,1.207v17.277Zm-7.686-16.951a6.94,6.94,0,0,0-1.324-.465,20.925,20.925,0,0,0-3.366-.348,21.479,21.479,0,0,1-2.229.023q-1.092.093-1.091,1.324V390h5.666q.673.023.789.185-.023.557-.557.418h-5.039q-.906.093-.906,1.323v6.641h3.065a13.767,13.767,0,0,0,4.9-.742q1.694-.767,1.787-1.974v2.485a.942.942,0,0,1-.325.79,1.358,1.358,0,0,1-.7.162H394.037V382.664a1.829,1.829,0,0,1,2.067-1.881q6.64-.069,8.754,0,1.555.093,1.555,1.347v2a2.969,2.969,0,0,0-1.695-1.811m-26.077-1.579q1.37.069,1.23,1.021v7.686q.023.534.372.534a1.241,1.241,0,0,0,.72-.395q6.733-7.755,7.059-8.127.674-.767,1.069-.719h1.44l-8.453,8.429,8.523,10.1h-1.811a2.608,2.608,0,0,1-1.812-.813q-6.13-6.71-6.409-7.013a.535.535,0,0,0-.372-.186c-.17,0-.278.163-.325.488v6.943q-.07.58-.883.581h-1.881v-18.53ZM368.4,393.368a.623.623,0,0,0-.093-.3l-3.414-8.986q-.232-.51-.464-.511c-.139,0-.255.171-.348.511l-2.369,9.614h6.2q.488-.023.488-.326m5.55,5.9h-2.694q-.883.185-1.509-1.881-.511-1.416-.766-2a2.783,2.783,0,0,0-.441-.766,1.242,1.242,0,0,0-.813-.232H361.5l-1.253,4.2a2.257,2.257,0,0,1-.349.441.841.841,0,0,1-.581.232h-1l6.269-18.46q.07-.232.465-.326a1.121,1.121,0,0,1,.348-.046h1ZM355.212,380.76v18.507h-1.788a.832.832,0,0,1-.743-.534,1.272,1.272,0,0,1-.116-.465v-14.28l-5.829,14.676a1.035,1.035,0,0,1-.395.534.81.81,0,0,1-.209.07H344.67q-.371.139-.789-.813l-4.737-14.931-2.02,15.233a.526.526,0,0,1-.395.441.728.728,0,0,1-.326.07l.6-18.507h2.09a1.047,1.047,0,0,1,1.045.65l6.014,16.672,6.153-16.44a1.353,1.353,0,0,1,.6-.766.925.925,0,0,1,.349-.116Z" transform="translate(0 -18.616)" fill="#fff"/>
    <path id="Path_12177" data-name="Path 12177" d="M451.434,417.342h-1.481a.517.517,0,0,0-.352.119.861.861,0,0,0-.209.263l-2.107,3.71c-.1.187-.182.363-.259.529a4.155,4.155,0,0,0-.194.5c-.062-.163-.133-.328-.212-.5s-.166-.345-.262-.532l-2.121-3.71a.878.878,0,0,0-.216-.274.532.532,0,0,0-.352-.108h-1.474l3.783,6.3V427.7h1.676v-4.056Zm-14.152,0h-8.14v1.4h3.235V427.7h1.676v-8.952h3.229Zm-18.467,9v-3.2h3.811v-1.315h-3.811V418.7h4.768v-1.359h-6.458V427.7h6.458l.007-1.359ZM410.7,418.7v-1.359h-6.457V427.7h1.689v-4.322h4.049v-1.359h-4.049V418.7Zm-16.23-1.359h-1.7L388.664,427.7h1.3a.54.54,0,0,0,.36-.122.688.688,0,0,0,.2-.267l.863-2.286h4.458l.863,2.286a.729.729,0,0,0,.209.277.549.549,0,0,0,.359.111h1.3Zm-2.625,6.472,1.424-3.776q.079-.216.172-.5t.172-.622a10.636,10.636,0,0,0,.352,1.115l1.424,3.783Zm-8.356-5.509a3.721,3.721,0,0,0-1.283-.8,4.61,4.61,0,0,0-1.637-.28,3.821,3.821,0,0,0-1.409.244,3.126,3.126,0,0,0-1.04.651,2.795,2.795,0,0,0-.859,2.017,2.9,2.9,0,0,0,.208,1.176,2.4,2.4,0,0,0,.55.791,2.846,2.846,0,0,0,.78.517,8.786,8.786,0,0,0,.892.346q.453.147.892.277a3.991,3.991,0,0,1,.78.316,1.687,1.687,0,0,1,.55.464,1.154,1.154,0,0,1,.209.715,1.561,1.561,0,0,1-.5,1.23,2.047,2.047,0,0,1-1.413.446,2.7,2.7,0,0,1-.964-.154,3.746,3.746,0,0,1-.686-.339c-.189-.122-.352-.234-.486-.338a.624.624,0,0,0-.366-.154.439.439,0,0,0-.223.057.473.473,0,0,0-.165.158l-.489.805a4.015,4.015,0,0,0,.668.561,4.464,4.464,0,0,0,.8.428,5.054,5.054,0,0,0,.9.274,4.808,4.808,0,0,0,.968.1,4.06,4.06,0,0,0,1.5-.259,3.2,3.2,0,0,0,1.107-.708,3.048,3.048,0,0,0,.686-1.053,3.5,3.5,0,0,0,.237-1.295,2.555,2.555,0,0,0-.208-1.086,2.35,2.35,0,0,0-.55-.755,3.051,3.051,0,0,0-.78-.511q-.439-.2-.9-.359t-.9-.3a4.427,4.427,0,0,1-.78-.327,1.778,1.778,0,0,1-.55-.449,1.028,1.028,0,0,1-.208-.658,1.446,1.446,0,0,1,.111-.572,1.243,1.243,0,0,1,.335-.457,1.578,1.578,0,0,1,.55-.3,2.772,2.772,0,0,1,1.564.011,3.718,3.718,0,0,1,.586.259c.165.094.3.179.418.256a.56.56,0,0,0,.306.115.365.365,0,0,0,.215-.061.633.633,0,0,0,.165-.191Z" transform="translate(-9.455 -27.22)" fill="#fff"/>
    <path id="Path_12178" data-name="Path 12178" d="M410.123,317v27.115a.833.833,0,0,0,.832.832h6.769a.833.833,0,0,0,.832-.832V316.064a7.239,7.239,0,0,1,2.576-2.914,6.956,6.956,0,0,1,4.11-1.378c4.691,0,6.972,2.678,6.972,8.183v21.367a52.481,52.481,0,0,1-7.987,4.805c-16.809,8.2-34.7,6.219-39.888-4.412-2.784-5.712-1.434-12.995,3.694-20.061v22.458a.833.833,0,0,0,.831.832h6.77a.833.833,0,0,0,.832-.832V316.173a9.038,9.038,0,0,1,2.877-2.974,7.1,7.1,0,0,1,3.88-1.426,8.115,8.115,0,0,1,5.094,1.474A4.391,4.391,0,0,1,410.123,317m-.794-5.074a9.706,9.706,0,0,0-6.1-1.816,8.716,8.716,0,0,0-4.819,1.715,10.475,10.475,0,0,0-3.511,3.763.833.833,0,0,0-.091.379v27.316H389.7V319.229a.832.832,0,0,0-1.473-.532c-6.689,8.061-8.7,16.939-5.381,23.749,3.216,6.594,10.84,10.375,20.917,10.375a48.9,48.9,0,0,0,21.2-5.2,54.068,54.068,0,0,0,8.588-5.213.838.838,0,0,0,.335-.667V319.956c0-6.532-2.905-9.845-8.635-9.847a8.578,8.578,0,0,0-5.073,1.683,8.722,8.722,0,0,0-3.216,3.787.835.835,0,0,0-.062.315v27.388h-5.1V317a6.021,6.021,0,0,0-2.459-5.074m31.319,21.391V318.6c0-4.426-1.166-7.924-3.462-10.4-2.317-2.519-5.6-3.8-9.769-3.8a15.715,15.715,0,0,0-6.733,1.54,10.719,10.719,0,0,0-3.92,2.924,11.508,11.508,0,0,0-5.656-3.684,42.029,42.029,0,0,1,20.085-2.269c6.783,1.088,11.8,4.306,14.116,9.06,2.944,6.034,1.2,13.973-4.66,21.334m6.155-22.064c-5.247-10.756-21.987-13.6-38.938-6.607a.832.832,0,0,0,.21,1.594c3.688.477,6.388,2.006,8.023,4.547a.833.833,0,0,0,1.437-.064,8,8,0,0,1,3.859-3.268,14.065,14.065,0,0,1,6.023-1.381c3.681,0,6.556,1.1,8.546,3.261s3.02,5.276,3.021,9.268V335.59a.832.832,0,0,0,1.453.555c7.5-8.388,9.879-17.693,6.367-24.892" transform="translate(-10.493 0)" fill="#fff"/>
  </g>
</svg>
